<?xml version="1.0" standalone="no"?><!DOCTYPE svg PUBLIC "-//W3C//DTD SVG 1.1//EN" "http://www.w3.org/Graphics/SVG/1.1/DTD/svg11.dtd"><svg t="1588768636593" class="icon" viewBox="0 0 1024 1024" version="1.1" xmlns="http://www.w3.org/2000/svg" p-id="6295" xmlns:xlink="http://www.w3.org/1999/xlink" width="32" height="32"><defs><style type="text/css"></style></defs><path d="M900.45952 204.72832l-74.24 212.89472a12.22144 12.22144 0 0 1-10.60864 8.1664v0.0512h-195.328v-24.5248h185.71776L877.39392 196.608a12.22144 12.22144 0 1 1 23.0656 8.12032z m-322.56 214.15936H417.99168l-6.656 165.34528H507.904a52.25984 52.25984 0 0 1 6.4256 0.44032 51.712 51.712 0 0 1 16.08192 0.44032 52.59264 52.59264 0 0 1 41.85088 61.13792l-50.73408 274.432a52.4288 52.4288 0 0 1-60.928 41.984 52.59264 52.59264 0 0 1-41.85088-61.13792l39.2704-212.41856H306.37056a52.35712 52.35712 0 0 1-46.56128-28.81536 53.13024 53.13024 0 0 1-6.656-27.86304l12.66688-314.74176a78.39232 78.39232 0 0 1 81.152-75.07968 78.44864 78.44864 0 0 1 74.83392 81.408l-0.96768 24.064c0.16384 0 0.32256-0.0512 0.512-0.0512h156.55424a33.54624 33.54624 0 0 1 33.38752 33.5104v3.84a33.54624 33.54624 0 0 1-33.41312 33.50528zM373.30432 229.376a86.528 86.528 0 1 1 86.20032-86.528 86.35904 86.35904 0 0 1-86.20032 86.528z m-170.7264 391.7824l10.51136 84.8896h180.8896a23.81312 23.81312 0 0 1 0 47.616H332.6976v90.0608h-21.47328v69.82656h14.96576c39.86432 0 72.47872 24.36096 72.47872 64.36864H177.00352c0-40.00768 32.6144-64.36864 72.47872-64.36864h18.2016V843.7248h-24.70912V753.664H191.6928a23.80288 23.80288 0 0 1-1.5872-47.54944l-10.17344-82.14528a39.23456 39.23456 0 0 1-31.98464-33.72032l-24.77056-200.02816a39.00928 39.00928 0 1 1 77.41952-9.65632l24.77056 200.04352a39.3216 39.3216 0 0 1-22.78912 40.5504z m417.70496-134.95808H470.86592v-46.08H815.616v46.08h-149.44256v439.296h48.68096v46.08h-143.25248v-46.08h48.68096v-439.296z" p-id="6296" fill="#1296db"></path></svg>