<?xml version="1.0" standalone="no"?><!DOCTYPE svg PUBLIC "-//W3C//DTD SVG 1.1//EN" "http://www.w3.org/Graphics/SVG/1.1/DTD/svg11.dtd"><svg t="1589128524981" class="icon" viewBox="0 0 1025 1024" version="1.1" xmlns="http://www.w3.org/2000/svg" p-id="6057" xmlns:xlink="http://www.w3.org/1999/xlink" width="32.03125" height="32"><defs><style type="text/css"></style></defs><path d="M1024 824.195122c0 109.892683-89.912195 199.804878-199.804878 199.804878H200.803902C90.91122 1024 0.999024 934.087805 0.999024 824.195122V200.803902C0.999024 90.91122 90.91122 0.999024 200.803902 0.999024h623.39122c109.892683 0 199.804878 89.912195 199.804878 199.804878v623.39122z" fill="#4f68b0" p-id="6058" data-spm-anchor-id="a313x.7781069.0.i4" class="selected"></path><path d="M516.295805 399.909463c-65.13639-3.496585-120.082732 49.851317-120.082732 115.986732 0 87.015024-26.274341 167.036878-70.830829 234.371122-6.893268 9.290927-5.694439 23.177366 2.297756 31.369366 10.289951 10.489756 27.473171 8.092098 34.266537-3.496585 49.152-73.128585 78.922927-162.441366 80.021853-257.548488 0-34.766049 23.976585-67.334244 58.343025-71.929756 42.258732-5.794341 78.922927 27.87278 78.922926 68.43317 0 100.901463-23.976585 194.909659-67.434146 278.428098-7.992195 15.085268 2.297756 34.766049 20.579903 34.766049 7.992195 0 15.98439-4.595512 20.579902-12.787512 45.755317-89.31278 72.029659-190.314146 73.128585-297.009952-1.198829-63.737756-48.053073-118.284488-109.79278-120.582244z" fill="#FFFFFF" p-id="6059"></path><path d="M513.998049 492.718829c-14.885463-2.297756-26.274341 9.290927-26.274342 23.177366 0 100.901463-29.770927 196.108488-80.021853 275.031415-7.992195 12.787512-2.297756 28.971707 10.289951 33.667122 10.289951 4.595512 21.678829 1.198829 27.473171-8.092098 54.846439-87.015024 86.915122-189.115317 86.915122-299.307707 0.999024-11.688585-6.993171-23.277268-18.382049-24.476098zM200.704 742.17522h1.098927c-4.595512 4.595512-5.694439 10.489756-5.694439 16.284097 0 19.68078 20.579902 30.170537 35.465366 16.284098h1.098926c4.595512-4.595512 7.992195-10.489756 7.992196-16.284098 0.099902-19.780683-26.274341-30.170537-39.960976-16.284097zM772.345756 743.374049c-10.289951 0-19.480976 3.496585-21.678829 12.787512-4.595512 15.085268-9.191024 27.87278-14.885464 42.958049s5.694439 30.170537 21.67883 30.170536c9.191024 0 18.282146-6.993171 21.678829-15.085268 5.694439-15.085268 11.388878-27.87278 15.98439-44.056976 3.496585-15.185171-7.892293-26.773854-22.777756-26.773853z" fill="#FFFFFF" p-id="6060"></path><path d="M512.79922 191.013463C340.167805 188.715707 199.605073 325.681951 191.612878 498.513171c-1.098927 2.297756-1.098927 3.496585-1.098927 5.794341 0 12.787512 10.289951 20.87961 22.877659 20.87961 12.587707 0 22.877659-9.290927 22.877658-25.575024 6.893268-150.852683 130.372683-268.038244 281.225366-264.541659 150.852683 3.596488 270.835512 139.264 267.438829 292.414439-1.098927 42.958049-4.595512 85.816195-11.388878 126.476488-3.396683 20.87961 20.579902 35.964878 36.564293 22.078439 4.595512-3.496585 6.893268-8.092098 7.992195-13.886439 6.893268-41.75922 11.388878-85.816195 12.587707-129.973073 3.396683-182.222049-136.067122-339.968-317.88956-341.16683z" fill="#FFFFFF" p-id="6061"></path><path d="M487.623805 343.064976c37.763122-4.595512 74.327415 2.297756 105.197268 19.68078 9.191024 4.595512 19.480976 3.496585 26.274342-3.496585 10.289951-10.489756 7.992195-28.971707-4.595513-35.964878-29.770927-17.383024-65.13639-27.87278-101.700682-27.872781-121.181659-2.297756-219.485659 97.50478-219.485659 220.484683 0 60.341073-17.18322 117.185561-46.854244 164.739122-5.694439 9.290927-5.694439 20.87961 1.098927 27.872781 10.289951 12.787512 28.572098 10.489756 36.564293-2.297757 34.266537-54.546732 53.747512-118.38439 54.846439-186.817561 1.198829-88.213854 62.938537-165.937951 148.654829-176.327804zM654.56078 389.419707c-7.992195 8.092098-7.992195 19.68078-2.297756 27.872781 19.480976 27.87278 29.770927 61.539902 29.770927 98.603707 0 83.518439-14.885463 164.739122-41.159805 239.066537-7.992195 22.078439 4.595512 37.163707 26.274342 32.468292 7.992195-2.297756 13.686634-6.993171 15.98439-15.085268 27.473171-76.625171 42.258732-158.94478 43.457561-244.860878 1.098927-49.851317-13.686634-96.305951-40.060878-134.568585-6.793366-11.588683-22.777756-13.886439-31.968781-3.496586z" fill="#FFFFFF" p-id="6062"></path></svg>