<?xml version="1.0" standalone="no"?><!DOCTYPE svg PUBLIC "-//W3C//DTD SVG 1.1//EN" "http://www.w3.org/Graphics/SVG/1.1/DTD/svg11.dtd"><svg t="1589128478040" class="icon" viewBox="0 0 1024 1024" version="1.1" xmlns="http://www.w3.org/2000/svg" p-id="4568" xmlns:xlink="http://www.w3.org/1999/xlink" width="32" height="32"><defs><style type="text/css"></style></defs><path d="M826.894 592.05l-6.629-2.632 5.624-4.388c41.788-32.635 65.76-81.402 65.76-133.795 0-93.851-76.858-170.208-171.344-170.208-94.49 0-171.357 76.357-171.357 170.208 0 52.384 23.972 101.146 65.755 133.795l5.624 4.388-6.624 2.632c-110.393 43.84-181.727 148.206-181.727 265.875l0 58.1c0 13.768 11.277 24.963 25.136 24.963l526.371 0c13.854 0 25.136-11.2 25.136-24.963l0-58.1C1008.635 740.256 937.301 635.889 826.894 592.05zM480.137 557.601c-21.054-35.671-32.432-76.569-32.432-119.214 0-115.814 84.118-212.436 194.744-232.56-65.054-77.977-162.949-127.6-272.435-127.6C174.153 78.227 15.382 237 15.382 432.858c0 184.275 140.564 335.695 320.32 352.956C351.386 693.203 403.42 611.434 480.137 557.601zM403.695 471.253l-177.082 177.07-74.102-54.542 154.378-154.308L306.889 188.97l96.806 0L403.695 471.253z" p-id="4569" fill="#4f68b0"></path></svg>