<?xml version="1.0" standalone="no"?><!DOCTYPE svg PUBLIC "-//W3C//DTD SVG 1.1//EN" "http://www.w3.org/Graphics/SVG/1.1/DTD/svg11.dtd"><svg t="1589128767758" class="icon" viewBox="0 0 1024 1024" version="1.1" xmlns="http://www.w3.org/2000/svg" p-id="12620" xmlns:xlink="http://www.w3.org/1999/xlink" width="32" height="32"><defs><style type="text/css"></style></defs><path d="M326.925353 610.193393c22.88215-4.491291 44.300972-8.980535 61.358463-14.926968 7.036253-2.486634 12.015661-4.731768 15.474436-6.736425-17.844413-19.539009-32.651654-43.208081-44.12087-69.729108-13.899568-32.893154-21.48329-68.216661-21.970384-102.56291-0.546446-45.457308 2.305509-80.050174 8.195659-109.422132 8.615215-42.23594 24.39562-74.4005 48.366567-98.616018 7.950066-8.250918 16.871249-15.172561 26.339902-21.118993-13.352099-47.337121-42.605354-78.650291-104.686271-78.650291-102.626355 0-117.067252 81.503269-116.094088 179.393763 0.545422 49.884131 23.181979 101.833293 56.374962 131.387399 3.3984 2.972705 5.28333 7.344269 5.28333 11.955286 0 12.076036-0.791016 27.79402-5.037736 33.378202-23.003923 31.380708-80.758302 37.099966-133.099391 48.65514-10.214642 2.255367-29.727045 20.446681-29.727045 41.244356 0 0 0 134.032646 0 151.986553 0 17.954931 14.183024 28.172643 25.382087 28.172643 11.199063 0 23.230074 0 23.230074 0 6.795776-18.931165 14.866592-34.590819 23.968901-47.758724C202.395128 635.19788 268.606109 622.028952 326.925353 610.193393z" p-id="12621" fill="#4f68b0"></path><path d="M900.688022 513.199315c-52.339042-11.555174-110.095467-17.274432-133.099391-48.65514-4.244674-5.584182-5.036713-21.302165-5.036713-33.378202 0-4.611018 1.88493-8.981559 5.282307-11.955286 33.194006-29.553083 55.831586-81.502245 56.375985-131.387399 0.974188-97.889471-13.468756-179.393763-116.094088-179.393763-62.079894 0-91.333148 31.31317-104.686271 78.650291 9.467629 5.946432 18.389836 12.868075 26.338878 21.118993 23.970948 24.215518 39.751353 56.380078 48.367591 98.616018 5.889127 29.372981 8.742105 63.964824 8.194636 109.422132-0.485047 34.346249-8.069793 69.669756-21.968337 102.56291-11.470239 26.521027-26.27748 50.190099-44.121893 69.729108 3.458775 2.004657 8.43716 4.249791 15.474436 6.736425 17.058514 5.946432 38.477336 10.435677 61.359486 14.926968 58.319244 11.834536 124.529201 25.004487 160.761404 76.651774 9.102309 13.167904 17.171078 28.827559 23.968901 47.758724 0 0 12.031011 0 23.229051 0 11.199063 0 25.38311-10.217712 25.38311-28.172643 0-17.953907 0-151.986553 0-151.986553C930.41609 533.645996 910.903687 515.454682 900.688022 513.199315z" p-id="12622" fill="#4f68b0"></path><path d="M577.148277 613.284801c-4.671393-6.67605-5.519714-24.580838-5.218862-38.054711 0.060375-4.731768 2.366907-9.769504 5.949502-13.048177 37.077453-33.317827 62.204737-91.698468 62.204737-148.866493 0-109.23896-16.812921-199.478194-127.202077-199.478194-113.848954 0-129.87086 91.212398-128.782062 201.057155 0.546446 56.134485 25.554002 114.154923 62.631456 147.287531 3.764744 3.523243 5.89015 8.376785 5.89015 13.471826 0 13.534248-0.791016 31.074739-5.709025 37.565571-43.208081 59.474556-197.473537 36.597523-244.205884 103.112426-30.766724 43.995003-39.382962 139.519614-41.753963 180.300412-0.546446 10.255575 7.588839 18.937305 17.904789 18.937305l666.228617 0c10.1952 0 18.445094-8.623401 17.965164-18.937305-2.185782-40.842197-10.561543-137.212058-42.907229-180.240037C770.561335 651.454122 620.906897 672.757311 577.148277 613.284801z" p-id="12623" fill="#4f68b0"></path></svg>