<?xml version="1.0" standalone="no"?><!DOCTYPE svg PUBLIC "-//W3C//DTD SVG 1.1//EN" "http://www.w3.org/Graphics/SVG/1.1/DTD/svg11.dtd"><svg t="1588768736447" class="icon" viewBox="0 0 1024 1024" version="1.1" xmlns="http://www.w3.org/2000/svg" p-id="10050" xmlns:xlink="http://www.w3.org/1999/xlink" width="32" height="32"><defs><style type="text/css"></style></defs><path d="M523.264 744.96c0-92.16 54.272-172.032 132.608-208.384-33.28-12.8-66.56-21.504-99.328-26.624 89.6-28.16 155.648-112.64 155.648-211.456C712.704 177.152 612.864 76.8 491.52 76.8S270.848 177.152 270.848 297.984c0 96.256 62.976 179.2 149.504 208.896-174.592 30.72-315.392 169.984-351.232 353.28-3.584 15.36 0 30.72 9.728 44.032 9.728 11.776 25.088 19.456 40.448 19.456H609.28c-52.224-41.984-86.016-106.496-86.016-178.688z" p-id="10051"></path><path d="M754.688 543.744c-111.616 0-201.728 90.112-201.728 201.728s90.112 201.728 201.728 201.728 201.728-90.112 201.728-201.728-90.624-201.728-201.728-201.728z m108.544 307.712c-9.216 9.216-24.064 9.728-33.28 0.512l-75.264-73.216-73.216 75.264c-9.216 9.216-24.064 9.728-33.28 0.512-9.216-9.216-9.728-24.064-0.512-33.28l73.216-75.264-75.264-73.216c-9.216-9.216-9.728-24.064-0.512-33.28 9.216-9.216 24.064-9.728 33.28-0.512l75.264 73.216 73.216-75.264c9.216-9.216 24.064-9.728 33.28-0.512 9.216 9.216 9.728 24.064 0.512 33.28l-73.216 75.264 75.264 73.216c9.728 9.216 9.728 24.064 0.512 33.28z" p-id="10052"></path></svg>