<?xml version="1.0" standalone="no"?><!DOCTYPE svg PUBLIC "-//W3C//DTD SVG 1.1//EN" "http://www.w3.org/Graphics/SVG/1.1/DTD/svg11.dtd"><svg t="1588768883569" class="icon" viewBox="0 0 1024 1024" version="1.1" xmlns="http://www.w3.org/2000/svg" p-id="8527" xmlns:xlink="http://www.w3.org/1999/xlink" width="32" height="32"><defs><style type="text/css"></style></defs><path d="M817.694118 0H206.305882C109.929412 0 28.611765 75.294118 28.611765 174.682353v755.952941c0 30.117647 27.105882 54.211765 57.223529 54.211765 12.047059 0 21.082353-3.011765 30.117647-12.047059l96.376471-72.282353c33.129412-27.105882 81.317647-27.105882 114.447059 0l126.494117 102.4c33.129412 27.105882 84.329412 27.105882 117.458824 0l126.494117-102.4c33.129412-27.105882 81.317647-27.105882 114.447059-3.011765l96.376471 72.282353c24.094118 18.070588 57.223529 12.047059 75.294117-9.035294 6.023529-9.035294 12.047059-21.082353 12.047059-30.117647V174.682353c0-96.376471-81.317647-174.682353-177.694117-174.682353z m-162.635294 605.364706h-195.764706c-18.070588 0-30.117647-12.047059-30.117647-30.117647v-219.858824c0-18.070588 12.047059-30.117647 30.117647-30.117647s30.117647 12.047059 30.117647 30.117647v189.741177h165.647059c18.070588 0 30.117647 12.047059 30.117647 30.117647s-12.047059 30.117647-30.117647 30.117647z" fill="#e98f36" p-id="8528"></path></svg>